<?xml version="1.0" encoding="iso-8859-1"?>
<svg fill="#000000" height="800px" width="800px" version="1.1" id="Layer_1" xmlns="http://www.w3.org/2000/svg" xmlns:xlink="http://www.w3.org/1999/xlink" 
	 viewBox="0 0 512 512" xml:space="preserve">
<g>
	<g>
		<path d="M434.863,126.093V77.137h-48.956V0h-33.391v77.137h-42.083V0h-33.391v77.137h-42.083V0h-33.391v77.137h-42.083V0h-33.391
			v77.137H77.137v48.956H0v33.391h77.137v42.083H0v33.391h77.137v42.083H0v33.391h77.137v42.083H0v33.391h77.137v48.956h48.956V512
			h33.391v-77.137h42.083V512h33.391v-77.137h42.083V512h33.391v-77.137h42.083V512h33.391v-77.137h48.956v-48.956H512v-33.391
			h-77.137v-42.083H512v-33.391h-77.137v-42.083H512v-33.391h-77.137v-42.083H512v-33.39H434.863z M342.261,342.261h-56.348v-56.348
			h56.348V342.261z M342.261,226.087h-56.348v-56.348h56.348V226.087z M226.087,342.261h-56.348v-56.348h56.348V342.261z
			 M226.087,226.087h-56.348v-56.348h56.348V226.087z M256,315.826l-29.913-29.913h59.826L256,315.826z M285.913,226.087h-59.826
			l29.913-29.913L285.913,226.087z M196.174,256l29.913,29.913v-59.826L196.174,256z M285.913,285.913l-29.913-29.913v59.826
			L285.913,285.913z M315.826,256l-29.913-29.913v59.826L315.826,256z M226.087,196.174l29.913,29.913h-59.826L226.087,196.174z
			 M256,196.174l29.913,29.913h-59.826L256,196.174z M256,315.826l29.913-29.913h-59.826L256,315.826z"/>
	</g>
</g>
</svg>
