<?xml version="1.0" encoding="iso-8859-1"?>
<svg fill="#000000" height="800px" width="800px" version="1.1" id="Layer_1" xmlns="http://www.w3.org/2000/svg" xmlns:xlink="http://www.w3.org/1999/xlink" 
	 viewBox="0 0 512 512" xml:space="preserve">
<g>
	<g>
		<path d="M160,96L96,160l64,64l64-64L160,96z M160,192l-32-32l32-32l32,32L160,192z"/>
		<path d="M352,96l-64,64l64,64l64-64L352,96z M352,192l-32-32l32-32l32,32L352,192z"/>
		<path d="M256,192l-64,64l64,64l64-64L256,192z M256,288l-32-32l32-32l32,32L256,288z"/>
		<path d="M160,288l-64,64l64,64l64-64L160,288z M160,384l-32-32l32-32l32,32L160,384z"/>
		<path d="M352,288l-64,64l64,64l64-64L352,288z M352,384l-32-32l32-32l32,32L352,384z"/>
		<rect x="192" y="144" width="32" height="48"/>
		<rect x="288" y="144" width="32" height="48"/>
		<rect x="144" y="240" width="48" height="32"/>
		<rect x="320" y="240" width="48" height="32"/>
		<rect x="192" y="336" width="32" height="48"/>
		<rect x="288" y="336" width="32" height="48"/>
	</g>
</g>
</svg>
