<?xml version="1.0" encoding="iso-8859-1"?>
<svg fill="#000000" height="800px" width="800px" version="1.1" id="Layer_1" xmlns="http://www.w3.org/2000/svg" xmlns:xlink="http://www.w3.org/1999/xlink" 
	 viewBox="0 0 512 512" xml:space="preserve">
<g>
	<g>
		<path d="M434.863,126.093V77.137h-48.956V0h-33.391v77.137h-42.083V0h-33.391v77.137h-42.083V0h-33.391v77.137h-42.083V0h-33.391
			v77.137H77.137v48.956H0v33.391h77.137v42.083H0v33.391h77.137v42.083H0v33.391h77.137v42.083H0v33.391h77.137v48.956h48.956V512
			h33.391v-77.137h42.083V512h33.391v-77.137h42.083V512h33.391v-77.137h42.083V512h33.391v-77.137h48.956v-48.956H512v-33.391
			h-77.137v-42.083H512v-33.391h-77.137v-42.083H512v-33.391h-77.137v-42.083H512v-33.39H434.863z M169.652,352.696h-33.391V229.531
			h33.391V352.696z M256,352.696h-33.391V159.304H256V352.696z M342.348,352.696h-33.391v-88.348h33.391V352.696z M375.739,229.531
			c0,9.217-7.479,16.696-16.696,16.696s-16.696-7.479-16.696-16.696c0-9.217,7.479-16.696,16.696-16.696
			S375.739,220.314,375.739,229.531z M289.391,141.913c0,9.217-7.479,16.696-16.696,16.696c-9.217,0-16.696-7.479-16.696-16.696
			s7.479-16.696,16.696-16.696C281.913,125.217,289.391,132.696,289.391,141.913z M203.043,212.138
			c0,9.217-7.479,16.696-16.696,16.696c-9.217,0-16.696-7.479-16.696-16.696s7.479-16.696,16.696-16.696
			C195.565,195.442,203.043,202.921,203.043,212.138z M332.174,205.913l-56.348-49.565l-72.783,63.913l-33.391-29.348l-16.609,18.913
			l50,43.913l72.783-63.913l39.739,34.957L332.174,205.913z"/>
	</g>
</g>
</svg>
