<?xml version="1.0" encoding="iso-8859-1"?>
<svg fill="#000000" height="800px" width="800px" version="1.1" id="Layer_1" xmlns="http://www.w3.org/2000/svg" xmlns:xlink="http://www.w3.org/1999/xlink" 
	 viewBox="0 0 512 512" xml:space="preserve">
<g>
	<g>
		<rect x="80" y="320" width="64" height="128"/>
		<rect x="176" y="240" width="64" height="208"/>
		<rect x="272" y="160" width="64" height="288"/>
		<rect x="368" y="200" width="64" height="248"/>
		<circle cx="112" cy="304" r="16"/>
		<circle cx="208" cy="224" r="16"/>
		<circle cx="304" cy="144" r="16"/>
		<circle cx="400" cy="184" r="16"/>
		<rect x="120" y="296" transform="matrix(0.5547 -0.8321 0.8321 0.5547 -140.8276 251.0891)" width="96" height="16"/>
		<rect x="216" y="216" transform="matrix(0.5547 -0.8321 0.8321 0.5547 -60.8276 283.0891)" width="96" height="16"/>
		<rect x="312" y="156" transform="matrix(0.5547 -0.8321 0.8321 0.5547 19.1724 315.0891)" width="96" height="16"/>
		<rect x="64" y="64" width="384" height="32"/>
	</g>
</g>
</svg>
